<?xml version="1.0" ?><svg height="100px" style="enable-background:new 0 0 100 100;" version="1.1" viewBox="0 0 100 100" width="100px" xml:space="preserve" xmlns="http://www.w3.org/2000/svg" xmlns:xlink="http://www.w3.org/1999/xlink"><style type="text/css">
	.st0{fill:#2C3E50;}
	.st1{fill:#ECF0F1;}
</style><g id="Layer_1"><circle class="st0" cx="50" cy="50" id="XMLID_1_" r="50"/></g><g id="Layer_2"><g id="XMLID_2_"><circle class="st1" cx="66.3" cy="42.7" id="XMLID_8_" r="6.3"/><circle class="st1" cx="33.7" cy="42.7" id="XMLID_4_" r="6.3"/><path class="st1" d="M70.3,48c-1.1,0.9-2.5,1.5-4,1.5s-2.9-0.6-4-1.5c-0.6,0.1-1.2,0.2-1.7,0.5    c2,1.4,3.2,3.8,3.2,6.4v7.6c0,0.4,0,0.8-0.1,1.1h6c2.9,0,5.3-2.4,5.3-5.3v-5C75,50.5,72.9,48.3,70.3,48z" id="XMLID_3_"/><path class="st1" d="M36.2,54.8c0-2.6,1.3-4.9,3.2-6.4c-0.5-0.2-1.1-0.4-1.7-0.5c-1.1,0.9-2.5,1.5-4,1.5    c-1.5,0-2.9-0.6-4-1.5c-2.6,0.3-4.7,2.5-4.7,5.2v5c0,2.9,2.4,5.3,5.3,5.3h6c-0.1-0.4-0.1-0.7-0.1-1.1V54.8z" id="XMLID_9_"/><path class="st1" d="M59.8,48.5c-1.1-0.8-2.4-1.3-3.8-1.5c-1.6,1.4-3.7,2.2-6,2.2c-2.3,0-4.4-0.9-6-2.2    c-1.4,0.2-2.7,0.7-3.8,1.5c-2,1.4-3.2,3.8-3.2,6.4v7.6c0,0.4,0,0.8,0.1,1.1c0.6,3.8,3.8,6.8,7.8,6.8h10.4c4,0,7.2-3,7.8-6.8    c0.1-0.4,0.1-0.7,0.1-1.1v-7.6C63.1,52.2,61.8,49.9,59.8,48.5z" id="XMLID_5_"/><circle class="st1" cx="50" cy="39.1" id="XMLID_6_" r="9.4"/></g></g></svg>